<?xml version="1.0" encoding="utf-8"?>
<!-- Generator: Adobe Illustrator 19.1.0, SVG Export Plug-In . SVG Version: 6.00 Build 0)  -->
<svg version="1.1" id="lettre" xmlns="http://www.w3.org/2000/svg" xmlns:xlink="http://www.w3.org/1999/xlink" x="0px" y="0px"
	 viewBox="0 0 121.8 87" style="enable-background:new 0 0 121.8 87;" xml:space="preserve">
<path d="M121.8,86.8V73.6c-1.4,0.2-2.9,0.3-4.3,0.3c-14.6,0-26.8-10.2-29.7-23.9h25.4V37H87.7c3-13.7,15.2-23.9,29.7-23.9
	c1.5,0,2.9,0.1,4.3,0.3V0.2c-1.4-0.1-2.9-0.2-4.3-0.2c-24,0-43.5,19.5-43.5,43.5c0,24,19.5,43.5,43.5,43.5
	C118.9,87,120.3,86.9,121.8,86.8z"/>
<path d="M0,43.5C0,67.5,19.5,87,43.5,87c1.6,0,3.1-0.1,4.6-0.2V73.6c-1.5,0.2-3.1,0.4-4.6,0.4C26.7,73.9,13,60.3,13,43.5
	C13,26.7,26.7,13,43.5,13c1.6,0,3.1,0.1,4.6,0.4V0.2C46.6,0.1,45.1,0,43.5,0C19.5,0,0,19.5,0,43.5z"/>
</svg>
