<?xml version="1.0" encoding="utf-8"?>
<!-- Generator: Adobe Illustrator 19.1.0, SVG Export Plug-In . SVG Version: 6.00 Build 0)  -->
<svg version="1.1" id="Layer_1" xmlns="http://www.w3.org/2000/svg" xmlns:xlink="http://www.w3.org/1999/xlink" x="0px" y="0px"
	 viewBox="0 0 690.6 371.7" style="enable-background:new 0 0 690.6 371.7;" xml:space="preserve">
<style type="text/css">
	.st0{fill:none;stroke:#000000;stroke-miterlimit:10;}
</style>
<g id="Dots_1_">
	<path d="M334.2,192.1c0,4.5-3.6,8.1-8.1,8.1c-4.5,0-8.1-3.6-8.1-8.1c0-4.5,3.6-8.1,8.1-8.1C330.6,184,334.2,187.6,334.2,192.1"/>
	<path d="M378.9,335.2c0,4.5-3.6,8.1-8.1,8.1c-4.5,0-8.1-3.6-8.1-8.1c0-4.5,3.6-8.1,8.1-8.1C375.3,327.1,378.9,330.8,378.9,335.2"/>
	<path d="M181.2,301.4c0,4.5-3.6,8.1-8.1,8.1c-4.5,0-8.1-3.6-8.1-8.1c0-4.5,3.6-8.1,8.1-8.1C177.6,293.3,181.2,296.9,181.2,301.4"/>
	<path d="M363.2,35c0,4.5-3.6,8.1-8.1,8.1c-4.5,0-8.1-3.6-8.1-8.1c0-4.5,3.6-8.1,8.1-8.1C359.6,26.9,363.2,30.5,363.2,35"/>
	<path d="M578.3,88.3c0,4.5-3.6,8.1-8.1,8.1c-4.5,0-8.1-3.6-8.1-8.1c0-4.5,3.6-8.1,8.1-8.1C574.7,80.2,578.3,83.8,578.3,88.3"/>
	<path d="M670.3,131.3c0,4.5-3.6,8.1-8.1,8.1c-4.5,0-8.1-3.6-8.1-8.1c0-4.5,3.6-8.1,8.1-8.1C666.7,123.2,670.3,126.8,670.3,131.3"/>
	<path d="M660.7,295.5c0,4.5-3.6,8.1-8.1,8.1c-4.5,0-8.1-3.6-8.1-8.1c0-4.5,3.6-8.1,8.1-8.1C657.1,287.4,660.7,291,660.7,295.5"/>
	<path d="M202.6,178.3c0,4.5-3.6,8.1-8.1,8.1c-4.5,0-8.1-3.6-8.1-8.1c0-4.5,3.6-8.1,8.1-8.1C199,170.2,202.6,173.8,202.6,178.3"/>
	<path d="M456.8,8.3c0,4.5-3.6,8.1-8.1,8.1s-8.1-3.6-8.1-8.1s3.6-8.1,8.1-8.1S456.8,3.8,456.8,8.3"/>
	<path d="M181.2,112.8c0,4.5-3.6,8.1-8.1,8.1c-4.5,0-8.1-3.6-8.1-8.1c0-4.5,3.6-8.1,8.1-8.1C177.6,104.7,181.2,108.4,181.2,112.8"/>
	<path d="M54.6,192.1c0,4.5-3.6,8.1-8.1,8.1c-4.5,0-8.1-3.6-8.1-8.1c0-4.5,3.6-8.1,8.1-8.1C51,184,54.6,187.6,54.6,192.1"/>
	<path d="M395.4,88.3c0,4.5-3.6,8.1-8.1,8.1c-4.5,0-8.1-3.6-8.1-8.1c0-4.5,3.6-8.1,8.1-8.1C391.8,80.2,395.4,83.8,395.4,88.3"/>
	<path d="M268.4,151.5c0,2.9-2.4,5.3-5.3,5.3c-2.9,0-5.3-2.4-5.3-5.3c0-2.9,2.4-5.3,5.3-5.3C266,146.3,268.4,148.6,268.4,151.5"/>
	<path d="M276.3,112.8c0,2.9-2.4,5.3-5.3,5.3c-2.9,0-5.3-2.4-5.3-5.3c0-2.9,2.4-5.3,5.3-5.3C273.9,107.5,276.3,109.9,276.3,112.8"/>
	<path d="M136.9,165c0,2.9-2.4,5.3-5.3,5.3c-2.9,0-5.3-2.4-5.3-5.3c0-2.9,2.4-5.3,5.3-5.3C134.6,159.7,136.9,162.1,136.9,165"/>
	<path d="M101,221.8c0,2.9-2.4,5.3-5.3,5.3c-2.9,0-5.3-2.4-5.3-5.3c0-2.9,2.4-5.3,5.3-5.3C98.6,216.5,101,218.9,101,221.8"/>
	<path d="M471,159.7c0,2.9-2.4,5.3-5.3,5.3c-2.9,0-5.3-2.4-5.3-5.3c0-2.9,2.4-5.3,5.3-5.3C468.7,154.4,471,156.8,471,159.7"/>
	<path d="M550,180.9c0,2.9-2.4,5.3-5.3,5.3c-2.9,0-5.3-2.4-5.3-5.3c0-2.9,2.4-5.3,5.3-5.3C547.7,175.6,550,178,550,180.9"/>
	<path d="M683.9,153.7c0,2.9-2.4,5.3-5.3,5.3c-2.9,0-5.3-2.4-5.3-5.3c0-2.9,2.4-5.3,5.3-5.3C681.5,148.4,683.9,150.8,683.9,153.7"/>
	<path d="M687.5,46.6c0,2.9-2.4,5.3-5.3,5.3c-2.9,0-5.3-2.4-5.3-5.3c0-2.9,2.4-5.3,5.3-5.3C685.2,41.3,687.5,43.7,687.5,46.6"/>
	<path d="M675.9,364.4c0,2.9-2.4,5.3-5.3,5.3c-2.9,0-5.3-2.4-5.3-5.3c0-2.9,2.4-5.3,5.3-5.3C673.5,359.1,675.9,361.5,675.9,364.4"/>
	<path d="M650.9,88.3c0,2.9-2.4,5.3-5.3,5.3c-2.9,0-5.3-2.4-5.3-5.3c0-2.9,2.4-5.3,5.3-5.3C648.5,83,650.9,85.4,650.9,88.3"/>
	<path d="M498.7,107.5c0,2.9-2.4,5.3-5.3,5.3c-2.9,0-5.3-2.4-5.3-5.3c0-2.9,2.4-5.3,5.3-5.3C496.4,102.3,498.7,104.6,498.7,107.5"/>
	<path d="M606,64.8c0,2.9-2.4,5.3-5.3,5.3c-2.9,0-5.3-2.4-5.3-5.3c0-2.9,2.4-5.3,5.3-5.3C603.7,59.6,606,61.9,606,64.8"/>
	<path d="M467,217.8c0,2.9-2.4,5.3-5.3,5.3c-2.9,0-5.3-2.4-5.3-5.3c0-2.9,2.4-5.3,5.3-5.3C464.6,212.5,467,214.9,467,217.8"/>
	<path d="M282.9,5.3c0,2.9-2.4,5.3-5.3,5.3c-2.9,0-5.3-2.4-5.3-5.3c0-2.9,2.4-5.3,5.3-5.3C280.6,0,282.9,2.4,282.9,5.3"/>
	<path d="M178.4,48.9c0,2.9-2.4,5.3-5.3,5.3c-2.9,0-5.3-2.4-5.3-5.3c0-2.9,2.4-5.3,5.3-5.3C176,43.7,178.4,46,178.4,48.9"/>
	<path d="M120.2,5.3c0,2.9-2.4,5.3-5.3,5.3c-2.9,0-5.3-2.4-5.3-5.3c0-2.9,2.4-5.3,5.3-5.3C117.8,0,120.2,2.4,120.2,5.3"/>
	<path d="M334.2,246.4c0,2.9-2.4,5.3-5.3,5.3c-2.9,0-5.3-2.4-5.3-5.3c0-2.9,2.4-5.3,5.3-5.3C331.9,241.2,334.2,243.5,334.2,246.4"/>
	<path d="M400.6,287.4c0,2.9-2.4,5.3-5.3,5.3c-2.9,0-5.3-2.4-5.3-5.3c0-2.9,2.4-5.3,5.3-5.3C398.3,282.1,400.6,284.5,400.6,287.4"/>
	<path d="M524.7,275.1c0,2.9-2.4,5.3-5.3,5.3c-2.9,0-5.3-2.4-5.3-5.3c0-2.9,2.4-5.3,5.3-5.3C522.4,269.8,524.7,272.1,524.7,275.1"/>
	<path d="M69.9,107.5c0,2.9-2.4,5.3-5.3,5.3c-2.9,0-5.3-2.4-5.3-5.3c0-2.9,2.4-5.3,5.3-5.3C67.5,102.3,69.9,104.6,69.9,107.5"/>
	<path d="M93,88.3c0,2.9-2.4,5.3-5.3,5.3c-2.9,0-5.3-2.4-5.3-5.3c0-2.9,2.4-5.3,5.3-5.3C90.6,83,93,85.4,93,88.3"/>
	<path d="M147.9,133.1c0,2.9-2.4,5.3-5.3,5.3c-2.9,0-5.3-2.4-5.3-5.3c0-2.9,2.4-5.3,5.3-5.3C145.5,127.8,147.9,130.2,147.9,133.1"/>
	<path d="M13.9,246.4c0,2.9-2.4,5.3-5.3,5.3c-2.9,0-5.3-2.4-5.3-5.3c0-2.9,2.4-5.3,5.3-5.3C11.5,241.2,13.9,243.5,13.9,246.4"/>
</g>
<g id="Lines_1_">
	<polyline class="st0" points="0.3,44.6 115.8,5.3 173.1,48.9 277.6,5.3 355.2,35 	"/>
	<polyline class="st0" points="277.6,5.3 173.1,112.8 87.7,88.3 0.3,88.3 	"/>
	<line class="st0" x1="355.2" y1="35" x2="495.2" y2="107.5"/>
	<polyline class="st0" points="652.6,296.9 461.7,217.8 521.6,275.1 	"/>
	<polyline class="st0" points="662.6,131.3 569.8,88.3 495.2,107.5 	"/>
	<path class="st0" d="M662.6,131.3"/>
	<path class="st0" d="M685.6,50.2"/>
	<polyline class="st0" points="0.3,124.1 64.6,107.5 142.6,133.1 271,112.8 355.2,35 448.3,8.3 600.8,64.8 682.6,46.8 	"/>
	<polyline class="st0" points="678.6,153.7 544.8,180.9 495.2,107.5 387.3,88.3 263.1,151.5 131.7,165 46.2,192.1 0.3,161 	"/>
	<path class="st0" d="M678.6,153.7"/>
	<path class="st0" d="M690.2,243.4"/>
	<line class="st0" x1="544.8" y1="180.9" x2="690.2" y2="243.4"/>
	<line class="st0" x1="519.7" y1="275.1" x2="452.7" y2="370.8"/>
	<polyline class="st0" points="167.9,301.4 328.9,246.4 326.2,192.1 461.7,217.8 465.8,159.6 544.8,180.9 	"/>
	<polyline class="st0" points="95.7,221.8 194.5,177.9 326.2,192.1 465.8,159.6 	"/>
	<line class="st0" x1="116.9" y1="370.8" x2="173.1" y2="299.6"/>
	<line class="st0" x1="12.2" y1="245.7" x2="95.7" y2="221.8"/>
	<line class="st0" x1="0.3" y1="357.9" x2="167.9" y2="301.4"/>
	<line class="st0" x1="670.6" y1="364.4" x2="521.7" y2="275.1"/>
	<line class="st0" x1="521.7" y1="275.1" x2="328.9" y2="246.4"/>
	<line class="st0" x1="328.9" y1="246.4" x2="95.7" y2="221.8"/>
	<line class="st0" x1="0.3" y1="275.7" x2="95.7" y2="221.8"/>
	<line class="st0" x1="279.6" y1="371.3" x2="370.9" y2="335.2"/>
	<line class="st0" x1="370.9" y1="335.2" x2="395.4" y2="287.4"/>
	<line class="st0" x1="395.4" y1="287.4" x2="521.6" y2="275.1"/>
	<line class="st0" x1="645.2" y1="88.3" x2="569.8" y2="88.3"/>
	<line class="st0" x1="0.3" y1="243" x2="8.6" y2="246.6"/>
</g>
<g>
	<line class="st0" x1="671.3" y1="364.4" x2="690.3" y2="357.9"/>
	<line class="st0" x1="656.3" y1="294.9" x2="690.3" y2="275.7"/>
	<line class="st0" x1="690.3" y1="161" x2="679.3" y2="153.5"/>
	<line class="st0" x1="663.3" y1="131" x2="690.3" y2="124.1"/>
	<line class="st0" x1="690.3" y1="88.3" x2="646.3" y2="88.3"/>
	<line class="st0" x1="683.3" y1="46.8" x2="690.3" y2="44.6"/>
</g>
</svg>
