<?xml version="1.0" encoding="utf-8"?>
<!-- Generator: Adobe Illustrator 19.1.0, SVG Export Plug-In . SVG Version: 6.00 Build 0)  -->
<svg version="1.1" id="Logo-wrap" xmlns="http://www.w3.org/2000/svg" xmlns:xlink="http://www.w3.org/1999/xlink" x="0px" y="0px"
	 viewBox="-357.9 698.5 240.5 95.9" style="enable-background:new -357.9 698.5 240.5 95.9;" xml:space="preserve">
<g id="Logo">
	<g id="Name">
		<path d="M-355.7,768.1c0.1-2.5,0.2-15.6,0.2-17.1v-6.1c0-1-0.2-14.8-0.3-16.2h5.6c-0.1,1-0.3,12.5-0.3,13.5v4.4l25.1-1.1v-4.4
			c0-1-0.1-11.1-0.2-12.3h5.7c-0.2,1.4-0.4,16.5-0.4,17.9v5.6c0,0.7,0.1,14.8,0.2,15.9h-5.6c0.2-1.9,0.3-11.9,0.3-13v-5.8l-25.1,1.1
			v3.6c0,2.5,0.2,12.9,0.2,14.2h-5.4V768.1z"/>
		<path d="M-296.5,768.1c0.1-1.3,0.3-7.2,0.3-8v-4.2c0-7.3-3.4-13.2-7.3-17.4c-2.2-2.5-5.2-4.9-8.3-6.2l2.3-4.4
			c3.6,1.9,7.3,4.9,8.8,6.6c2.6,3,6.1,7.4,7.3,12.1h0.1c1.6-4.7,3.8-7.9,6.8-11.4c2.5-2.8,7.3-6.2,10.8-7.3l1.7,4.4
			c-3.6,1.1-7.6,3.7-10.7,7.3c-3.8,4.4-6.5,10.4-6.5,16.4v5.3c0,0.8,0.2,5.8,0.3,6.9C-290.9,768.1-296.5,768.1-296.5,768.1z"/>
		<path d="M-241.4,759.4c0,2.1,0.2,7.1,0.2,7.9c-2.5,1-7.8,1.8-12.4,1.8c-12.8,0-20.9-7.1-20.9-16.4c0-6.4,6.6-19,27.8-24.7l1.1,4.9
			c-12.8,2.5-23.4,11-23.4,19.9c0,5.8,5.4,12.4,16.5,12.4c2.4,0,4.7-0.4,6-0.8V755c0-1.6-0.1-3.5-0.2-3.9h5.3
			c-0.1,1.3-0.1,2.6-0.1,4.3L-241.4,759.4L-241.4,759.4z"/>
		<path d="M-222.9,751.2c0,5.6,0.2,15.7,0.2,17h-5.5c0.1-2.5,0.2-15.6,0.2-17.1V745c0-1-0.2-14.8-0.3-16.2h5.6
			c-0.1,1-0.3,9.6-0.3,16.3L-222.9,751.2L-222.9,751.2z"/>
		<path d="M-188.3,768.7c-0.9,0-17.8-0.6-18.9-0.6c0.2-3,0.2-15,0.2-16.3v-7.5c0-0.9-0.1-14.4-0.2-15.5c1.4,0,16-0.7,17.8-1l0.2,4.4
			c-1.8,0-11.9,0.3-12.8,0.3v14.1c1,0,8.2-0.3,11-0.6l0.2,4.4c-1.2,0-10-0.2-11.1-0.2v13.7c1.3,0,8.9,0.2,13.5-0.2L-188.3,768.7z"/>
		<path d="M-168.7,751.2c0,5.6,0.2,15.7,0.2,17h-5.5c0.1-2.5,0.2-15.6,0.2-17.1V745c0-1-0.2-14.8-0.3-16.2h5.6
			c-0.1,1-0.3,9.6-0.3,16.3L-168.7,751.2L-168.7,751.2z"/>
		<path d="M-160.2,766.3c3.1-5.4,19.3-37.3,20.6-39.5h0.1c4.9,8,18.3,33.3,22.1,39.2l-4.8,3.1c-1.1-2.1-7.1-13.7-7.7-14.6l-19.5,0.8
			c-0.7,1.1-5.3,11.9-6.2,13.8L-160.2,766.3z M-131.6,751c-0.6-1.2-7.5-14.3-8.1-15.2c-0.8,1.2-7.3,15-7.8,15.9L-131.6,751z"/>
	</g>
	<path id="OrangeLeaf" d="M-149.9,708.1c-3.4-1.3-8.1-2.4-11.5-0.8c-4,1.9-5.5,5.7-7,9.6c0,0-1.6,4.4-3.9,5.7
		c0.1-0.1,1.2,0.4,1.3,0.5c2.5,0.7,5.2,1.2,7.8,0.9c5.2-0.7,6.7-5.6,8.5-9.7c0.5-1.3,1.2-2.6,2-3.7
		C-152.3,710.1-150.5,707.9-149.9,708.1z"/>
	<path id="RedLeaf" d="M-177.3,698.5c-0.2,1.2-1.4,2-2,3c-1.2,2-1.5,4.8-1,7.1c0.6,2.5,2.6,4.2,4.8,5.4c0,0,1.5,0.8,1.8,2.8
		c0-0.2,0.3-0.5,0.4-0.7c0.3-0.7,0.6-1.3,0.8-2c0.7-1.9,1.9-4.3,1.4-6.4c-0.4-1.9-2.3-3-3.6-4.2
		C-176.2,702.2-177.7,700.6-177.3,698.5z"/>
	<g id="TagLine">
		<path d="M-348.9,794.2l-1.5-3.7h-4.7l-1.4,3.7h-1.4l4.6-11.8h1.1l4.6,11.8H-348.9z M-350.7,789.3l-1.4-3.6c-0.2-0.5-0.4-1-0.5-1.7
			c-0.1,0.5-0.3,1.1-0.5,1.7l-1.4,3.6H-350.7z"/>
		<path d="M-341,782.5h3.3c1.6,0,2.7,0.2,3.4,0.7s1,1.2,1,2.2c0,0.7-0.2,1.3-0.6,1.7c-0.4,0.4-1,0.7-1.7,0.9v0.1
			c1.8,0.3,2.7,1.2,2.7,2.8c0,1-0.4,1.9-1.1,2.5s-1.7,0.9-3,0.9h-4.1C-341,794.2-341,782.5-341,782.5z M-339.6,787.5h2.2
			c1,0,1.7-0.2,2.1-0.5c0.4-0.3,0.6-0.8,0.6-1.5s-0.2-1.1-0.7-1.4c-0.5-0.3-1.2-0.4-2.2-0.4h-2V787.5L-339.6,787.5z M-339.6,788.7
			v4.4h2.4c0.9,0,1.7-0.2,2.1-0.5c0.5-0.4,0.7-0.9,0.7-1.7c0-0.7-0.2-1.3-0.7-1.6s-1.2-0.5-2.2-0.5
			C-337.3,788.7-339.6,788.7-339.6,788.7z"/>
		<path d="M-323.8,794.2h-6.5v-11.7h6.5v1.2h-5.2v3.8h4.9v1.2h-4.9v4.3h5.2V794.2z"/>
		<path d="M-317.3,794.2h-1.4v-10.5h-3.7v-1.2h8.8v1.2h-3.7V794.2L-317.3,794.2z"/>
		<path d="M-308.9,794.2h-1.4v-10.5h-3.7v-1.2h8.8v1.2h-3.7C-308.9,783.7-308.9,794.2-308.9,794.2z"/>
		<path d="M-297.3,794.2h-6.5v-11.7h6.5v1.2h-5.2v3.8h4.9v1.2h-4.9v4.3h5.2V794.2z"/>
		<path d="M-293.4,789.4v4.9h-1.4v-11.7h3.2c1.4,0,2.5,0.3,3.2,0.8s1,1.4,1,2.5c0,1.6-0.8,2.6-2.4,3.1l3.2,5.3h-1.6l-2.8-4.9
			L-293.4,789.4L-293.4,789.4z M-293.4,788.2h1.9c1,0,1.7-0.2,2.1-0.6c0.4-0.4,0.7-1,0.7-1.7c0-0.8-0.2-1.3-0.7-1.7
			c-0.5-0.3-1.2-0.5-2.2-0.5h-1.8V788.2L-293.4,788.2z"/>
		<path d="M-269.5,794.2h-1.3l-2.4-7.9c-0.1-0.3-0.2-0.8-0.4-1.3c-0.1-0.5-0.2-0.8-0.2-1c-0.1,0.7-0.3,1.5-0.6,2.3l-2.3,7.8h-1.3
			l-3.1-11.7h1.4l1.9,7.2c0.3,1,0.4,1.9,0.6,2.8c0.1-1,0.4-1.9,0.6-2.9l2.1-7.1h1.4l2.2,7.2c0.3,0.8,0.5,1.8,0.6,2.8
			c0.1-0.8,0.3-1.7,0.6-2.8l1.8-7.2h1.4L-269.5,794.2z"/>
		<path d="M-257.5,794.2l-1.5-3.7h-4.7l-1.4,3.7h-1.4l4.6-11.8h1.1l4.6,11.8H-257.5z M-259.4,789.3l-1.4-3.6c-0.2-0.5-0.4-1-0.5-1.7
			c-0.1,0.5-0.3,1.1-0.5,1.7l-1.4,3.6H-259.4z"/>
		<path d="M-251.8,788.4l3.1-5.9h1.5l-3.9,7.2v4.5h-1.4v-4.5l-3.9-7.2h1.5L-251.8,788.4z"/>
		<path d="M-237.2,794.2h-1.4v-10.5h-3.7v-1.2h8.8v1.2h-3.7V794.2L-237.2,794.2z"/>
		<path d="M-221.5,788.4c0,1.9-0.5,3.4-1.4,4.4c-0.9,1.1-2.3,1.6-4,1.6c-1.7,0-3.1-0.5-4-1.6c-0.9-1.1-1.4-2.5-1.4-4.5
			c0-1.9,0.5-3.4,1.4-4.4c0.9-1,2.3-1.6,4-1.6c1.7,0,3,0.5,3.9,1.6C-222,785-221.5,786.5-221.5,788.4z M-230.9,788.4
			c0,1.6,0.3,2.8,1,3.6c0.7,0.8,1.7,1.2,2.9,1.2c1.3,0,2.3-0.4,2.9-1.2c0.7-0.8,1-2,1-3.6c0-1.6-0.3-2.8-1-3.6
			c-0.7-0.8-1.6-1.2-2.9-1.2s-2.3,0.4-3,1.2S-230.9,786.8-230.9,788.4z"/>
		<path d="M-205.2,782.5v7.6c0,1.3-0.4,2.4-1.2,3.2c-0.8,0.8-1.9,1.1-3.3,1.1c-1.4,0-2.5-0.4-3.3-1.2s-1.2-1.8-1.2-3.2v-7.6h1.4v7.6
			c0,1,0.3,1.7,0.8,2.3c0.5,0.5,1.3,0.8,2.4,0.8c1,0,1.8-0.3,2.3-0.8s0.8-1.3,0.8-2.3v-7.6L-205.2,782.5L-205.2,782.5z"/>
		<path d="M-195.5,791.1c0,1-0.4,1.8-1.1,2.4c-0.7,0.6-1.8,0.9-3,0.9c-1.4,0-2.5-0.2-3.2-0.5v-1.3c0.5,0.2,1,0.4,1.6,0.5
			c0.6,0.1,1.1,0.2,1.7,0.2c0.9,0,1.6-0.2,2.1-0.5c0.5-0.3,0.7-0.8,0.7-1.4c0-0.4-0.1-0.7-0.2-1c-0.2-0.3-0.4-0.5-0.8-0.7
			c-0.4-0.2-1-0.5-1.7-0.7c-1.1-0.4-1.9-0.9-2.3-1.4c-0.5-0.5-0.7-1.2-0.7-2.1s0.3-1.6,1-2.2c0.7-0.5,1.6-0.8,2.7-0.8
			c1.2,0,2.2,0.2,3.2,0.6l-0.4,1.2c-1-0.4-1.9-0.6-2.8-0.6c-0.7,0-1.3,0.2-1.7,0.5c-0.4,0.3-0.6,0.7-0.6,1.3c0,0.4,0.1,0.7,0.2,1
			s0.4,0.5,0.8,0.7c0.4,0.2,0.9,0.5,1.6,0.7c1.2,0.4,2.1,0.9,2.5,1.4C-195.5,789.8-195.5,790.3-195.5,791.1z"/>
		<path d="M-186.3,794.2h-6.5v-11.7h6.5v1.2h-5.2v3.8h4.9v1.2h-4.9v4.3h5.2C-186.3,793-186.3,794.2-186.3,794.2z"/>
		<path d="M-178.8,794.2v-11.7h1.4v11.7H-178.8z"/>
		<path d="M-164.8,794.2h-1.6l-6.4-9.8h-0.1c0.1,1.2,0.1,2.2,0.1,3.2v6.7h-1.2v-11.7h1.5l6.4,9.8h0.1c0-0.1,0-0.6-0.1-1.4
			c0-0.8-0.1-1.3,0-1.7v-6.7h1.3C-164.8,782.6-164.8,794.2-164.8,794.2z"/>
		<path d="M-154.7,791.1c0,1-0.4,1.8-1.1,2.4c-0.8,0.6-1.8,0.9-3,0.9c-1.4,0-2.5-0.2-3.2-0.5v-1.3c0.5,0.2,1,0.4,1.6,0.5
			c0.6,0.1,1.1,0.2,1.7,0.2c0.9,0,1.6-0.2,2.1-0.5c0.5-0.3,0.7-0.8,0.7-1.4c0-0.4-0.1-0.7-0.2-1c-0.2-0.3-0.4-0.5-0.8-0.7
			c-0.4-0.2-1-0.5-1.7-0.7c-1.1-0.4-1.9-0.9-2.3-1.4c-0.5-0.5-0.7-1.2-0.7-2.1s0.3-1.6,1-2.2c0.7-0.5,1.6-0.8,2.7-0.8
			c1.2,0,2.2,0.2,3.2,0.6l-0.4,1.2c-1-0.4-1.9-0.6-2.8-0.6c-0.7,0-1.3,0.2-1.7,0.5c-0.4,0.3-0.6,0.7-0.6,1.3c0,0.4,0.1,0.7,0.2,1
			c0.1,0.3,0.4,0.5,0.8,0.7s0.9,0.5,1.6,0.7c1.2,0.4,2.1,0.9,2.5,1.4C-154.7,789.8-154.7,790.3-154.7,791.1z"/>
		<path d="M-143.5,782.5v7.6c0,1.3-0.4,2.4-1.2,3.2c-0.8,0.8-1.9,1.1-3.3,1.1s-2.5-0.4-3.3-1.2c-0.8-0.8-1.2-1.8-1.2-3.2v-7.6h1.4
			v7.6c0,1,0.3,1.7,0.8,2.3c0.5,0.5,1.3,0.8,2.4,0.8c1,0,1.8-0.3,2.3-0.8s0.8-1.3,0.8-2.3v-7.6L-143.5,782.5L-143.5,782.5z"/>
		<path d="M-140.4,794.2v-11.7h1.4V793h5.2v1.2H-140.4L-140.4,794.2z"/>
		<path d="M-131.6,794.2v-11.7h1.4v11.7H-131.6z"/>
		<path d="M-117.5,794.2h-1.6l-6.4-9.8h-0.1c0.1,1.2,0.1,2.2,0.1,3.2v6.7h-1.3v-11.7h1.5l6.4,9.8h0.1c0-0.1,0-0.6-0.1-1.4
			c0-0.8-0.1-1.3,0-1.7v-6.7h1.3L-117.5,794.2L-117.5,794.2z"/>
	</g>
</g>
</svg>
