<?xml version="1.0" encoding="utf-8"?>
<!-- Generator: Adobe Illustrator 19.1.0, SVG Export Plug-In . SVG Version: 6.00 Build 0)  -->
<svg version="1.1" id="Layer_1" xmlns="http://www.w3.org/2000/svg" xmlns:xlink="http://www.w3.org/1999/xlink" x="0px" y="0px"
	 viewBox="-67.5 384.4 30.6 25.6" style="enable-background:new -67.5 384.4 30.6 25.6;" xml:space="preserve">
<style type="text/css">
	.st0{fill:#F39F1E;}
	.st1{fill:#B42E33;}
</style>
<path class="st0" d="M-36.9,394c-3.4-1.3-8.1-2.4-11.5-0.8c-4,1.9-5.5,5.7-7,9.6c0,0-1.6,4.4-3.9,5.7c0.1-0.1,1.2,0.4,1.3,0.5
	c2.5,0.7,5.2,1.2,7.8,0.9c5.2-0.7,6.7-5.6,8.5-9.7c0.5-1.3,1.2-2.6,2-3.7C-39.3,396-37.5,393.8-36.9,394z"/>
<path class="st1" d="M-64.3,384.4c-0.2,1.2-1.4,2-2,3c-1.2,2-1.5,4.8-1,7.1c0.6,2.5,2.6,4.2,4.8,5.4c0,0,1.5,0.8,1.8,2.8
	c0-0.2,0.3-0.5,0.4-0.7c0.3-0.7,0.6-1.3,0.8-2c0.7-1.9,1.9-4.3,1.4-6.4c-0.4-1.9-2.3-3-3.6-4.2C-63.2,388.1-64.7,386.5-64.3,384.4z"
	/>
</svg>
