<?xml version="1.0" encoding="utf-8"?>
<!-- Generator: Adobe Illustrator 19.1.0, SVG Export Plug-In . SVG Version: 6.00 Build 0)  -->
<svg version="1.1" id="Layer_1" xmlns="http://www.w3.org/2000/svg" xmlns:xlink="http://www.w3.org/1999/xlink" x="0px" y="0px"
	 viewBox="-253 371.9 103.2 40.7" style="enable-background:new -253 371.9 103.2 40.7;" xml:space="preserve">
<g id="Logo">
	<g id="Name">
		<path d="M-252.6,400.9c0-1.1,0.1-6.7,0.1-7.3V391c0-0.4-0.1-6.3-0.1-6.9h2.4c0,0.4-0.1,5.3-0.1,5.8v1.9l10.7-0.5v-1.9
			c0-0.4,0-4.7-0.1-5.2h2.4c-0.1,0.6-0.2,7-0.2,7.6v2.4c0,0.3,0,6.3,0.1,6.8h-2.5c0.1-0.8,0.1-5.1,0.1-5.5v-2.6l-10.6,0.4v1.6
			c0,1.1,0.1,5.5,0.1,6L-252.6,400.9L-252.6,400.9z"/>
		<path d="M-226.9,400.9c0-0.6,0.1-3.1,0.1-3.4v-1.8c0-3.1-1.5-5.6-3.1-7.4c-1-1.1-2.2-2.1-3.5-2.7l1-1.9c1.5,0.8,3.1,2.1,3.7,2.8
			c1.1,1.3,2.6,3.2,3.1,5.2l0,0c0.7-2,1.6-3.4,2.9-4.8c1.1-1.2,3.1-2.6,4.6-3.1l0.7,1.9c-1.5,0.5-3.2,1.6-4.6,3.1
			c-1.6,1.9-2.8,4.4-2.8,7v2.1c0,0.3,0.1,2.5,0.1,2.9L-226.9,400.9L-226.9,400.9z"/>
		<path d="M-203,397.2c0,0.9,0.1,3,0.1,3.4c-1.1,0.4-3.3,0.8-5.3,0.8c-5.4,0-8.9-3-8.9-7c0-2.7,2.8-8.1,11.9-10.5l0.5,2.1
			c-5.5,1.1-10,4.7-10,8.5c0,2.5,2.3,5.3,7,5.3c1,0,2-0.2,2.6-0.4v-4c0-0.7,0-1.5-0.1-1.7h2.3c0,0.6,0,1.1,0,1.8v1.7L-203,397.2
			L-203,397.2z"/>
		<path d="M-195.1,393.7c0,2.4,0.1,6.7,0.1,7.2h-2.3c0-1.1,0.1-6.7,0.1-7.3V391c0-0.4-0.1-6.3-0.1-6.9h2.4c0,0.4-0.1,4.1-0.1,6.9
			L-195.1,393.7L-195.1,393.7z"/>
		<path d="M-179.9,401.1c-0.4,0-7.6-0.2-8.1-0.2c0.1-1.3,0.1-6.4,0.1-7v-3.2c0-0.4,0-6.1-0.1-6.6c0.6,0,6.8-0.3,7.6-0.4l0.1,1.9
			c-0.8,0-5.1,0.1-5.5,0.1v6c0.4,0,3.5-0.1,4.7-0.3l0.1,1.9c-0.5,0-4.3-0.1-4.7-0.1v5.8c0.6,0,3.8,0.1,5.7-0.1L-179.9,401.1z"/>
		<path d="M-172,393.7c0,2.4,0.1,6.7,0.1,7.2h-2.3c0-1.1,0.1-6.7,0.1-7.3V391c0-0.4-0.1-6.3-0.1-6.9h2.4c0,0.4-0.1,4.1-0.1,6.9
			L-172,393.7L-172,393.7L-172,393.7z"/>
		<path d="M-167.9,400.1c1.3-2.3,8.2-15.9,8.8-16.8l0,0c2.1,3.4,7.8,14.2,9.4,16.7l-2,1.3c-0.5-0.9-3-5.8-3.3-6.2l-8.3,0.3
			c-0.3,0.5-2.3,5.1-2.7,5.9L-167.9,400.1z M-155.8,393.6c-0.3-0.5-3.2-6.1-3.5-6.5c-0.4,0.5-3.1,6.4-3.3,6.8L-155.8,393.6z"/>
	</g>
	<path id="OrangeLeaf" d="M-163.9,376c-1.4-0.6-3.5-1-4.9-0.3c-1.7,0.8-2.4,2.4-3,4.1c0,0-0.7,1.9-1.7,2.4c0.1,0,0.5,0.2,0.6,0.2
		c1.1,0.3,2.2,0.5,3.3,0.4c2.2-0.3,2.9-2.4,3.6-4.1c0.2-0.5,0.5-1.1,0.9-1.6C-165,376.9-164.2,375.9-163.9,376z"/>
	<path id="RedLeaf" d="M-175.6,371.9c-0.1,0.5-0.6,0.9-0.8,1.3c-0.5,0.9-0.7,2.1-0.4,3c0.3,1.1,1.1,1.8,2.1,2.3c0,0,0.6,0.3,0.7,1.2
		c0-0.1,0.1-0.2,0.2-0.3c0.1-0.3,0.2-0.6,0.4-0.9c0.3-0.8,0.8-1.8,0.6-2.7c-0.2-0.8-1-1.3-1.6-1.8
		C-175.1,373.5-175.8,372.8-175.6,371.9z"/>
	<g id="Tagline">
		<path d="M-251.5,408.8l-0.6,1.9h-0.8l2.1-6.1h0.9l2.1,6.1h-0.9l-0.6-1.9H-251.5z M-249.5,408.1l-0.6-1.7c-0.1-0.4-0.2-0.8-0.3-1.1
			l0,0c-0.1,0.4-0.2,0.7-0.3,1.1l-0.6,1.8L-249.5,408.1L-249.5,408.1z"/>
		<path d="M-244.8,404.7c0.3-0.1,0.9-0.1,1.4-0.1c0.8,0,1.3,0.1,1.7,0.4c0.3,0.2,0.5,0.6,0.5,1.1c0,0.6-0.4,1.1-1,1.3l0,0
			c0.6,0.1,1.3,0.6,1.3,1.5c0,0.5-0.2,0.9-0.5,1.2c-0.4,0.4-1.1,0.6-2.1,0.6c-0.5,0-1,0-1.2-0.1L-244.8,404.7L-244.8,404.7z
			 M-244,407.2h0.7c0.8,0,1.3-0.4,1.3-1c0-0.7-0.5-1-1.3-1c-0.4,0-0.6,0-0.7,0.1V407.2z M-244,410.1c0.2,0,0.4,0,0.7,0
			c0.8,0,1.6-0.3,1.6-1.2c0-0.8-0.7-1.2-1.6-1.2h-0.7V410.1z"/>
		<path d="M-239.3,408.6c0,1.1,0.7,1.5,1.5,1.5c0.6,0,0.9-0.1,1.2-0.2l0.1,0.6c-0.3,0.1-0.8,0.3-1.5,0.3c-1.3,0-2.1-0.9-2.1-2.2
			c0-1.3,0.8-2.3,2-2.3c1.4,0,1.8,1.3,1.8,2.1c0,0.2,0,0.3,0,0.4h-3V408.6z M-237,408.1c0-0.5-0.2-1.3-1.1-1.3
			c-0.8,0-1.2,0.7-1.2,1.3H-237z"/>
		<path d="M-234.1,405.1v1.3h1.1v0.5h-1.1v2.3c0,0.5,0.2,0.8,0.6,0.8c0.2,0,0.4,0,0.5-0.1v0.6c-0.2,0.1-0.4,0.1-0.7,0.1
			c-0.4,0-0.7-0.1-0.9-0.3c-0.2-0.2-0.3-0.6-0.3-1.1v-2.3h-0.7v-0.6h0.7v-1L-234.1,405.1z"/>
		<path d="M-231,405.1v1.3h1.1v0.5h-1.1v2.3c0,0.5,0.2,0.8,0.6,0.8c0.2,0,0.4,0,0.5-0.1v0.6c-0.2,0.1-0.4,0.1-0.7,0.1
			c-0.4,0-0.7-0.1-0.9-0.3c-0.2-0.2-0.3-0.6-0.3-1.1v-2.3h-0.7v-0.6h0.7v-1L-231,405.1z"/>
		<path d="M-228.5,408.6c0,1.1,0.7,1.5,1.5,1.5c0.6,0,0.9-0.1,1.2-0.2l0.1,0.6c-0.3,0.1-0.8,0.3-1.5,0.3c-1.3,0-2.1-0.9-2.1-2.2
			c0-1.3,0.8-2.3,2-2.3c1.4,0,1.8,1.3,1.8,2.1c0,0.2,0,0.3,0,0.4h-3V408.6z M-226.2,408.1c0-0.5-0.2-1.3-1.1-1.3
			c-0.8,0-1.2,0.7-1.2,1.3H-226.2z"/>
		<path d="M-224.3,407.7c0-0.5,0-1,0-1.4h0.7v0.9l0,0c0.2-0.6,0.7-1,1.2-1c0.1,0,0.2,0,0.2,0v0.7c-0.1,0-0.2,0-0.3,0
			c-0.6,0-1,0.4-1.1,1c0,0.1,0,0.2,0,0.4v2.3h-0.8v-2.9H-224.3z"/>
		<path d="M-218.5,410.7l-1.5-6.1h0.8l0.7,3.1c0.2,0.8,0.3,1.5,0.5,2.1l0,0c0.1-0.6,0.3-1.3,0.5-2.1l0.8-3.1h0.8l0.7,3.1
			c0.2,0.7,0.3,1.4,0.4,2.1l0,0c0.1-0.7,0.3-1.3,0.5-2.1l0.8-3.1h0.8l-1.7,6.1h-0.8l-0.7-3.2c-0.2-0.8-0.3-1.4-0.4-2l0,0
			c-0.1,0.6-0.2,1.2-0.5,2l-0.9,3.2H-218.5z"/>
		<path d="M-209.6,410.7l-0.1-0.5l0,0c-0.2,0.3-0.7,0.6-1.3,0.6c-0.9,0-1.3-0.6-1.3-1.3c0-1.1,0.9-1.6,2.6-1.6v-0.1c0-0.4-0.1-1-1-1
			c-0.4,0-0.8,0.1-1.1,0.3l-0.2-0.5c0.4-0.2,0.9-0.4,1.4-0.4c1.3,0,1.7,0.9,1.7,1.8v1.6c0,0.4,0,0.7,0.1,1L-209.6,410.7
			L-209.6,410.7z M-209.8,408.4c-0.9,0-1.8,0.1-1.8,1c0,0.5,0.3,0.8,0.7,0.8c0.6,0,0.9-0.4,1.1-0.7c0-0.1,0-0.2,0-0.3V408.4z"/>
		<path d="M-207.3,406.3l1,2.6c0.1,0.3,0.2,0.6,0.3,0.9l0,0c0.1-0.3,0.2-0.6,0.3-0.9l0.9-2.6h0.8l-1.2,3.1c-0.6,1.5-1,2.3-1.5,2.7
			c-0.4,0.3-0.8,0.5-1,0.5l-0.2-0.7c0.2-0.1,0.5-0.2,0.7-0.4c0.2-0.2,0.5-0.5,0.7-0.9c0-0.1,0.1-0.1,0.1-0.2s0-0.1-0.1-0.2l-1.6-4
			h0.8V406.3z"/>
		<path d="M-200.3,405.1v1.3h1.1v0.5h-1.1v2.3c0,0.5,0.2,0.8,0.6,0.8c0.2,0,0.4,0,0.5-0.1v0.6c-0.2,0.1-0.4,0.1-0.7,0.1
			c-0.4,0-0.7-0.1-0.9-0.3c-0.2-0.2-0.3-0.6-0.3-1.1v-2.3h-0.7v-0.6h0.7v-1L-200.3,405.1z"/>
		<path d="M-194.2,408.4c0,1.6-1.1,2.3-2.2,2.3c-1.2,0-2.1-0.9-2.1-2.2c0-1.5,1-2.3,2.2-2.3C-195,406.2-194.2,407.1-194.2,408.4z
			 M-197.8,408.5c0,1,0.5,1.7,1.3,1.7c0.8,0,1.3-0.7,1.3-1.7c0-0.7-0.4-1.7-1.3-1.7C-197.4,406.8-197.8,407.7-197.8,408.5z"/>
		<path d="M-190.2,404.6v3.6c0,1.4,0.6,1.9,1.4,1.9c0.9,0,1.5-0.6,1.5-1.9v-3.6h0.8v3.5c0,1.9-1,2.6-2.3,2.6c-1.2,0-2.2-0.7-2.2-2.6
			v-3.6h0.8V404.6z"/>
		<path d="M-185.2,409.8c0.2,0.2,0.6,0.3,1,0.3c0.6,0,0.8-0.3,0.8-0.6c0-0.4-0.2-0.6-0.8-0.8c-0.8-0.3-1.2-0.7-1.2-1.2
			c0-0.7,0.6-1.3,1.5-1.3c0.4,0,0.8,0.1,1.1,0.3l-0.1,0.5c-0.2-0.1-0.5-0.3-0.9-0.3c-0.5,0-0.7,0.3-0.7,0.6c0,0.4,0.3,0.5,0.8,0.7
			c0.8,0.3,1.1,0.7,1.1,1.3c0,0.8-0.6,1.3-1.6,1.3c-0.5,0-0.9-0.1-1.2-0.3L-185.2,409.8z"/>
		<path d="M-181,408.6c0,1.1,0.7,1.5,1.5,1.5c0.6,0,0.9-0.1,1.2-0.2l0.1,0.6c-0.3,0.1-0.8,0.3-1.5,0.3c-1.3,0-2.1-0.9-2.1-2.2
			c0-1.3,0.8-2.3,2-2.3c1.4,0,1.8,1.3,1.8,2.1c0,0.2,0,0.3,0,0.4h-3V408.6z M-178.8,408.1c0-0.5-0.2-1.3-1.1-1.3
			c-0.8,0-1.2,0.7-1.2,1.3H-178.8z"/>
		<path d="M-173.9,404.6v6.1h-0.8v-6.1H-173.9z"/>
		<path d="M-172.4,407.5c0-0.5,0-0.8,0-1.2h0.7v0.7l0,0c0.2-0.4,0.7-0.8,1.4-0.8c0.6,0,1.5,0.4,1.5,1.9v2.6h-0.8v-2.5
			c0-0.7-0.3-1.3-1-1.3c-0.5,0-0.9,0.4-1.1,0.8c0,0.1-0.1,0.2-0.1,0.4v2.6h-0.8v-3.2H-172.4z"/>
		<path d="M-167.3,409.8c0.2,0.2,0.6,0.3,1,0.3c0.6,0,0.8-0.3,0.8-0.6c0-0.4-0.2-0.6-0.8-0.8c-0.8-0.3-1.2-0.7-1.2-1.2
			c0-0.7,0.6-1.3,1.5-1.3c0.4,0,0.8,0.1,1.1,0.3l-0.2,0.6c-0.2-0.1-0.5-0.3-0.9-0.3c-0.5,0-0.7,0.3-0.7,0.6c0,0.4,0.3,0.5,0.8,0.7
			c0.8,0.3,1.1,0.7,1.1,1.3c0,0.8-0.6,1.3-1.6,1.3c-0.5,0-0.9-0.1-1.2-0.3L-167.3,409.8z"/>
		<path d="M-159.9,409.5c0,0.5,0,0.8,0,1.2h-0.7V410l0,0c-0.2,0.4-0.7,0.8-1.4,0.8c-0.7,0-1.5-0.4-1.5-1.9v-2.5h0.8v2.4
			c0,0.8,0.3,1.4,1,1.4c0.5,0,0.9-0.4,1-0.7c0-0.1,0.1-0.3,0.1-0.4v-2.7h0.7V409.5L-159.9,409.5z"/>
		<path d="M-158.4,404.3h0.8v6.4h-0.8V404.3z"/>
		<path d="M-155.3,405.1c0,0.3-0.2,0.5-0.5,0.5c-0.3,0-0.5-0.2-0.5-0.5s0.2-0.5,0.5-0.5C-155.5,404.6-155.3,404.8-155.3,405.1z
			 M-156.2,410.7v-4.4h0.8v4.4H-156.2z"/>
		<path d="M-153.9,407.5c0-0.5,0-0.8,0-1.2h0.7v0.7l0,0c0.2-0.4,0.7-0.8,1.4-0.8c0.6,0,1.5,0.4,1.5,1.9v2.6h-0.8v-2.5
			c0-0.7-0.3-1.3-1-1.3c-0.5,0-0.9,0.4-1.1,0.8c0,0.1-0.1,0.2-0.1,0.4v2.6h-0.6L-153.9,407.5L-153.9,407.5z"/>
	</g>
</g>
</svg>
