<svg version="1.1" id="Layer_1" xmlns="http://www.w3.org/2000/svg" xmlns:xlink="http://www.w3.org/1999/xlink" x="0px" y="0px"
   viewBox="0 0 99.2 10.4" preserveAspectRatio="xMinYMin meet">
   <style type="text/css">
	.st0{fill:#B42E34;}
	.st1{fill:#F09B29;}
  </style>
  <path class="st0" d="M0 29c0-1.1 0.1-6.7 0.1-7.3v-2.6c0-0.4-0.1-6.3-0.1-6.9h2.4c0 0.4-0.1 5.3-0.1 5.8v1.9L13 19.4v-1.9c0-0.4 0-4.7-0.1-5.2h2.4c-0.1 0.6-0.2 7-0.2 7.6v2.4c0 0.3 0 6.3 0.1 6.8h-2.4c0.1-0.8 0.1-5.1 0.1-5.5V21L2.3 21.4V23c0 1.1 0.1 5.5 0.1 6H0z"/>
  <path class="st0" d="M24.3 29c0-0.6 0.1-3.1 0.1-3.4v-1.8c0-3.1-1.5-5.6-3.1-7.4 -1-1.1-2.2-2.1-3.5-2.7l1-1.9c1.5 0.8 3.1 2.1 3.7 2.8 1.1 1.3 2.6 3.2 3.1 5.2h0c0.7-2 1.6-3.4 2.9-4.8 1.1-1.2 3.1-2.6 4.6-3.1l0.7 1.9c-1.5 0.5-3.2 1.6-4.6 3.1 -1.6 1.9-2.8 4.4-2.8 7V26c0 0.3 0.1 2.5 0.1 2.9H24.3z"/>
  <path class="st0" d="M47.8 25.3c0 0.9 0.1 3 0.1 3.4 -1.1 0.4-3.3 0.8-5.3 0.8 -5.4 0-8.9-3-8.9-7 0-2.7 2.8-8.1 11.9-10.5l0.5 2.1c-5.5 1.1-10 4.7-10 8.5 0 2.5 2.3 5.3 7 5.3 1 0 2-0.2 2.6-0.4v-4c0-0.7 0-1.5-0.1-1.7h2.3c0 0.6 0 1.1 0 1.8V25.3z"/>
  <path class="st0" d="M55.2 21.8c0 2.4 0.1 6.7 0.1 7.2H53c0-1.1 0.1-6.7 0.1-7.3v-2.6c0-0.4-0.1-6.3-0.1-6.9h2.4c0 0.4-0.1 4.1-0.1 6.9V21.8z"/>
  <path class="st0" d="M69.9 29.2c-0.4 0-7.6-0.2-8.1-0.2 0.1-1.3 0.1-6.4 0.1-6.9v-3.2c0-0.4 0-6.1-0.1-6.6 0.6 0 6.8-0.3 7.6-0.4l0.1 1.9c-0.8 0-5.1 0.1-5.5 0.1v6c0.4 0 3.5-0.1 4.7-0.3l0.1 1.9c-0.5 0-4.3-0.1-4.7-0.1v5.8c0.6 0 3.8 0.1 5.8-0.1L69.9 29.2z"/>
  <path class="st0" d="M77.4 21.8c0 2.4 0.1 6.7 0.1 7.2h-2.3c0-1.1 0.1-6.7 0.1-7.3v-2.6c0-0.4-0.1-6.3-0.1-6.9h2.4c0 0.4-0.1 4.1-0.1 6.9V21.8z"/>
  <path class="st0" d="M81 28.2c1.3-2.3 8.2-15.9 8.8-16.8h0c2.1 3.4 7.8 14.2 9.4 16.7l-2 1.3c-0.5-0.9-3-5.8-3.3-6.2l-8.3 0.3c-0.3 0.5-2.3 5.1-2.7 5.9L81 28.2zM93.2 21.7c-0.3-0.5-3.2-6.1-3.5-6.5 -0.4 0.5-3.1 6.4-3.3 6.8L93.2 21.7z"/>
  <path class="st1" d="M85.8 4.1c-1.4-0.6-3.5-1-4.9-0.3 -1.7 0.8-2.4 2.4-3 4.1 0 0-0.7 1.9-1.7 2.4 0.1 0 0.5 0.2 0.6 0.2 1.1 0.3 2.2 0.5 3.3 0.4 2.2-0.3 2.9-2.4 3.6-4.1 0.2-0.5 0.5-1.1 0.9-1.6C84.7 5 85.5 4 85.8 4.1z"/>
  <path class="st0" d="M74.1 0c-0.1 0.5-0.6 0.9-0.8 1.3 -0.5 0.9-0.7 2.1-0.4 3 0.3 1.1 1.1 1.8 2.1 2.3 0 0 0.6 0.3 0.7 1.2 0-0.1 0.1-0.2 0.2-0.3 0.1-0.3 0.2-0.6 0.4-0.9 0.3-0.8 0.8-1.8 0.6-2.7 -0.2-0.8-1-1.3-1.6-1.8C74.5 1.6 73.9 0.9 74.1 0z"/>
</svg>
