<?xml version="1.0" encoding="utf-8"?>
<!-- Generator: Adobe Illustrator 19.1.0, SVG Export Plug-In . SVG Version: 6.00 Build 0)  -->
<svg version="1.1" id="Layer_1" xmlns="http://www.w3.org/2000/svg" xmlns:xlink="http://www.w3.org/1999/xlink" x="0px" y="0px"
	 viewBox="0 0 114 133.7" style="enable-background:new 0 0 114 133.7;" xml:space="preserve">
<path d="M114,130.5c0-1.5,0-3,0-4.7c0-13.6,0-32.3-5-41.2C101.7,72,87.2,64.2,80,64.2c-0.4,0-0.7,0-1.1,0.1
	c-0.8,0.1-1.6,0.4-2.4,0.7c-1.2-0.4-2.8-1.1-3.6-1.8c-0.6-0.5-1.1-1.4-1.5-2.3c6.6-5.3,10.7-14.7,11.8-27.8c0.8-9.5-2.1-18.6-7.9-25
	C70.4,2.8,63.9,0,56.7,0c-7.5,0-14.4,3-19.3,8.5c-5.6,6.3-8.3,15.3-7.2,24.7c1.4,13.2,5.7,22.7,12.3,27.9c-0.4,0.8-0.9,1.6-1.4,2.1
	c-0.7,0.6-2.1,1.2-3.2,1.6c-0.8-0.4-1.5-0.7-2.4-0.7c-6.6,0-22.7,7.1-29.9,20.6c-5.6,10.6-5.6,30-5.5,42.8l0,2.6
	c0,2.5,2.4,2.6,4.2,2.7c1.2,0.1,2.9,0.1,5.1,0.2c4.2,0.1,10.1,0.2,17.5,0.3c14.1,0.2,32,0.3,48,0.3c0,0,0,0,0,0
	c37.1,0,37.5-0.4,38.4-1.4l0.7-0.8L114,130.5z M35.1,32.6c-0.9-8,1.3-15.6,6-20.8c4-4.5,9.4-6.8,15.6-6.8c5.8,0,11,2.3,15,6.5
	c4.9,5.3,7.3,13,6.6,21.2c-1.9,23.2-12.8,28.1-21.6,28.1C48.2,60.8,37.6,55.9,35.1,32.6z M56.7,65.8c3.9,0,7.4-0.7,10.5-2.2
	c0.6,1.1,1.4,2.4,2.5,3.4c0.5,0.4,1,0.8,1.6,1.1C68,70,63.9,72,57.5,72c-6.8,0-11.5-2-14.8-4c0.5-0.3,1.1-0.7,1.5-1
	c1.1-0.9,1.9-2.2,2.5-3.3C49.7,65.1,53,65.8,56.7,65.8z M5,127.9l0-0.4c0-3.6,0-7.7,0.1-12c1.5,0.5,3.4,0.9,5.8,1.1
	c2.5,0.2,4.4,0.4,5.8,0.4c-0.1,3.4-0.1,8.2-0.1,11.2C11.3,128.1,7.3,128,5,127.9z M74.8,128.7C74.8,128.7,74.8,128.7,74.8,128.7
	c-19.3,0-39.2-0.2-53.2-0.4c0-3.8,0-10.9,0.2-13.5c0.2-2.2,1.4-8.1,1.8-10.2l-4.9-1.1c-0.1,0.3-1.1,5-1.6,8.5
	c-1.3-0.1-3.2-0.2-5.7-0.4c-2.8-0.3-4.8-0.9-6.1-1.3c0.5-8.8,1.7-17.6,4.6-23.2c6.5-12.3,20.7-17.8,25.3-17.9
	c0.4,0.2,1.2,0.7,1.9,1.2c3.4,2.3,9.7,6.7,20.4,6.7c9.1,0,14.6-3.5,18.3-5.9c1.6-1,2.9-1.9,3.8-2c0.1,0,0.3,0,0.4,0
	c4.9,0,18,6.3,24.6,18c2.8,4.8,3.8,13.9,4.2,23.1c-1.2,0.5-3.3,1.1-6.2,1.4c-2.5,0.2-4.4,0.3-5.7,0.4c-0.5-3.5-1.6-8.2-1.6-8.5
	l-4.9,1.1c0.4,2.1,1.7,7.9,1.8,10.2c0.2,2.7,0.2,10.2,0.2,13.8C87.6,128.7,81.8,128.7,74.8,128.7z M109,125.8c0,0.8,0,1.7,0,2.5
	c-2,0.1-5.8,0.2-11.6,0.3c0-2.9,0-8-0.1-11.6c1.4-0.1,3.3-0.2,5.8-0.4c2.4-0.2,4.4-0.7,5.9-1.1C109,119.1,109,122.7,109,125.8z"/>
</svg>
