<?xml version="1.0" encoding="utf-8"?>
<!-- Generator: Adobe Illustrator 19.1.0, SVG Export Plug-In . SVG Version: 6.00 Build 0)  -->
<svg version="1.1" id="Layer_2" xmlns="http://www.w3.org/2000/svg" xmlns:xlink="http://www.w3.org/1999/xlink" x="0px" y="0px"
	 viewBox="0 0 135.9 132.2" style="enable-background:new 0 0 135.9 132.2;" xml:space="preserve">
<style type="text/css">
	.st0{display:none;}
</style>
<g>
	<g>
		<path class="st0" d="M76.3,111.6c-1.8,0-1.6-1.2-1.7-3.1c0-2.1-4.1-4.1-5.8-5.2c-4.8-2.9-11.4-4.9-11.4-11.4
			c0-5.7,5.3-8.5,9.9-10.9c5.9-3,9.4-5.2,9.4-9.9c0-4.9-6.1-9.1-12.1-13.1c-6.3-4.3-12.9-8.7-12.9-15.3c0-6.2,3.6-10.4,5.7-11.8
			c1.6-1.1,3.7-0.7,4.7,0.9c1.1,1.6,0.7,3.7-0.9,4.8c-0.1,0.1-2.7,2-2.7,6.1c0,2.9,5.3,6.5,9.9,9.6c7.1,4.8,15.1,10.2,15.1,18.8
			c0,9.2-7.6,13.1-13.1,16c-3.1,1.6-6.2,3.2-6.2,4.8c0,2.6,2.6,5,6.1,7.1c4,2.4,7.8,5.4,7.8,9.6C78,110.5,78.2,111.6,76.3,111.6z"/>
		<path class="st0" d="M76.3,113.6c-3.6,0-3.7-3.1-3.7-4.4c0-0.2,0-0.7,0-0.7c-0.3-0.8-3.1-2.4-4-2.9c-0.3-0.2-0.6-0.3-0.8-0.5
			c-0.8-0.5-1.8-1-2.7-1.5c-4.3-2.3-9.7-5.1-9.7-11.7c0-7,6.1-10.2,11-12.7c6.2-3.2,8.3-4.9,8.3-8.1c0-3.8-5.9-7.8-11.2-11.4
			c-6.5-4.4-13.8-9.3-13.8-17c0-7.1,4.1-11.8,6.5-13.5c0.9-0.6,2-1,3.1-1c1.8,0,3.5,0.9,4.5,2.4c1.7,2.5,1,5.9-1.4,7.6
			c0,0-1.8,1.4-1.8,4.4c0,1.8,5.8,5.8,9,7.9c7.1,4.8,16,10.8,16,20.5C85.6,81.6,77,86,71.4,89c-1.7,0.9-4.5,2.3-5.1,3.2
			c0.1,1,1.1,2.7,5.1,5.1c4.1,2.5,8.8,6,8.8,11.4l0,0.4c0,1.3,0,2.6-1,3.6C78.4,113.3,77.5,113.6,76.3,113.6z"/>
		<path d="M66.4,93.2c-1.3,0.9-2.2,1.7-2.2,2.5c0,2.6,2.6,5,6.1,7.1c1.2,0.7,2.5,1.5,3.5,2.4c2.4,1.9,4.2,4.3,4.2,7.2
			c0,1.9,0.2,3-1.7,3c-1.8,0-1.6-1.2-1.7-3.1c0-0.6-0.4-1.3-0.9-1.9c-1.3-1.4-3.7-2.6-4.9-3.3c-4.8-2.9-11.4-4.9-11.4-11.4
			c0-5.3,4.4-8,8.8-10.3L66.4,93.2z"/>
		<path d="M74.5,80.2c1.4-1.4,2.2-3.1,2.2-5.2c0-4.9-6.1-9.1-12.1-13.1c-6.3-4.3-12.9-8.7-12.9-15.3c0-6.2,3.6-10.4,5.7-11.8
			c1.6-1.1,3.7-0.7,4.7,0.9c1.1,1.6,0.7,3.7-0.9,4.8c-0.1,0.1-2.7,2-2.7,6.1c0,2.9,5.3,6.5,9.9,9.6C75.5,61,83.5,66.4,83.5,75
			c0,7.2-4.6,11.1-9.2,13.9L74.5,80.2z"/>
		<g>
			<path d="M62.9,42.9c2.9-2,3.7-6,1.7-9c-2-2.9-6-3.7-8.9-1.7c-2.9,2-3.7,6-1.7,9C56,44.2,60,44.9,62.9,42.9z"/>
		</g>
	</g>
	<path d="M71.9,101.4c0,0-0.9-0.5-1.8-1.1c-0.9-0.6-1.5-1.2-1.5-1.2l-0.9-32.5c0,0,1.5,0.9,2.6,1.9c2.5,2.4,2.5,2.4,2.5,2.4
		L71.9,101.4"/>
	<polygon points="73.1,56.9 73.7,37.6 66.9,37.6 67.3,52.9 	"/>
	<path d="M71.6,111.3l-0.2,6.9h-2.3l-0.2-8.7c0,0,1.2,0.7,1.7,1C71,110.9,71.6,111.3,71.6,111.3"/>
	<path d="M71.6,107.5"/>
	<path d="M71.9,97.6"/>
	<path d="M76.5,27.3c0,3.5-2.8,6.3-6.2,6.3c-3.5,0-6.3-2.8-6.3-6.3c0-3.5,2.8-6.3,6.3-6.3C73.7,21,76.5,23.8,76.5,27.3z"/>
	<path d="M89.7,132.2H46.2v-28.9l-25.1,14L0,79l24-13.4L0.3,51.7l21.9-37.8l24,14.1V0h43.5v28.9l25.1-14l21.1,38.3l-24,13.4
		l23.7,13.9l-21.9,37.8l-24-14.1V132.2z M51.9,126.5H84V94.2l27.6,16.2l16.2-27.9l-27.4-16.1L128.2,51l-15.6-28.3L84,38.7V5.7H51.9
		v24l-4.1,5.8L24.3,21.7L8.1,49.6l27.4,16.1L7.7,81.2l15.6,28.3l28.6-16V126.5z"/>
</g>
</svg>
