<?xml version="1.0" encoding="utf-8"?>
<!-- Generator: Adobe Illustrator 19.1.0, SVG Export Plug-In . SVG Version: 6.00 Build 0)  -->
<svg version="1.1" id="Layer_2" xmlns="http://www.w3.org/2000/svg" xmlns:xlink="http://www.w3.org/1999/xlink" x="0px" y="0px"
	 viewBox="0 0 139 141.5" style="enable-background:new 0 0 139 141.5;" xml:space="preserve">
<g>
	<path d="M138.3,31.4c-0.6-0.8-1.5-1.3-2.5-1.3c-3.8-0.2-14.5-1.2-18.9-3.6c-2.1-1.2-5.5-4.5-8.9-7.7C101.1,12.1,96.7,8,92.6,8
		c-5.4,0-8.4,4.8-10.6,8.3c-0.7,1.1-1.4,2.2-1.9,2.9c-0.7,0.8-3.5,1.1-6,0.9l0-1.1c3.2-1.7,5.4-5,5.4-8.9c0-5.5-4.5-10-10-10
		c-5.5,0-10,4.5-10,10c0,3.9,2.2,7.3,5.4,8.9l0,1c-2.8,0.2-5.5-0.1-6.1-0.8c-0.6-0.6-1.2-1.7-1.9-2.9C54.8,12.8,51.8,8,46.4,8
		c-4.1,0-8.5,4.1-15.5,10.8c-3.3,3.2-6.7,6.5-8.9,7.7C17.7,28.9,7,29.9,3.2,30.1c-1,0-1.9,0.5-2.5,1.3c-0.6,0.8-0.8,1.8-0.6,2.7
		c0.1,0.6,1.7,6.4,11.2,10.2c7.6,3,13.6,1.6,16.5,0.4c2.3,1.3,6.7,3.3,12.6,3.3c4.9,0,8-1.3,10-2.7c2,1.3,5,2.7,8.4,2.7
		c2,0,4.5-0.8,6.6-1.8l0.9,79.4c0,1.8,1.5,3.3,3.3,3.3c1.8,0,3.3-1.5,3.3-3.3l0.9-79.4c2.1,0.9,4.4,1.7,6.4,1.7
		c3.4,0,6.4-1.4,8.4-2.7c1.9,1.4,5.1,2.7,10,2.7c5.9,0,10.3-1.9,12.6-3.3c3,1.2,8.9,2.6,16.5-0.4c9.5-3.8,11.1-9.6,11.2-10.2
		C139.1,33.2,138.9,32.1,138.3,31.4z M58.7,41.3c-2.7,0-5.5-2.1-6.4-2.8c-0.8-0.7-1.9-1.2-2.9-1c-1,0.2-1.8,0.8-2.3,1.8
		c-0.3,0.4-1.9,2-6.8,2c-6.3,0-10.2-3-10.3-3c-1.1-0.9-2.7-0.9-3.9-0.2c-0.2,0.1-5,3-12.5,0c-1.6-0.6-2.8-1.3-3.8-2
		c4.9-0.6,11.4-1.7,15.4-3.9c2.9-1.6,6.5-5.1,10.3-8.7c3.4-3.2,9-8.6,10.8-8.9c1.7,0,3.4,2.7,4.9,5.1c0.9,1.4,1.7,2.7,2.6,3.8
		c2.7,3,7.9,3.2,11.2,3l0.1,12.2C62.8,40.1,60,41.3,58.7,41.3z M125.3,38.1c-7.5,3-12.3,0.1-12.4,0c-1.2-0.8-2.8-0.7-3.9,0.2
		c0,0-3.9,3-10.3,3c-4.8,0-6.5-1.7-6.8-2c-0.4-1-1.2-1.5-2.3-1.8c-1.1-0.2-2.1,0.2-2.9,1c-0.8,0.7-3.7,2.8-6.4,2.8
		c-1.3,0-4-1.2-6.3-2.5l0.1-12.1c2.9,0.2,8.2,0.1,11-3.1c1-1.1,1.8-2.4,2.6-3.8c1.5-2.4,3.2-5.1,4.8-5.1c1.9,0.3,7.5,5.7,10.9,8.9
		c3.8,3.6,7.4,7.1,10.2,8.7c3.9,2.2,10.4,3.3,15.4,3.9C128.1,36.8,126.8,37.5,125.3,38.1z"/>
	<path d="M75.6,141.5c-1.1,0-2.2-0.6-2.8-1.6c-1-1.6-0.5-3.6,1.1-4.6c0.4-0.2,9.1-6,9.1-17.9c0-5.9-8.9-9.5-17.4-12.9
		c-9-3.6-18.3-7.4-18.3-15.2c0-13.6,18.1-15.2,34-16.6c11.9-1.1,25.4-2.3,25.4-8.1c0-1.2-0.4-2.1-1.3-2.9
		c-4.2-3.6-16.4-3.2-23.2-2.1c-1.8,0.3-3.5-0.9-3.8-2.8C78,55,79.2,53.3,81.1,53c2.1-0.3,20.7-3.1,28.6,3.6c2.4,2,3.7,4.8,3.7,7.9
		c0,11.9-16,13.4-31.5,14.8c-16.3,1.5-27.9,3-27.9,10c0,3.3,7.5,6.4,14.1,9.1c10.1,4.1,21.6,8.8,21.6,19.1
		c0,15.8-11.7,23.3-12.2,23.6C76.8,141.4,76.2,141.5,75.6,141.5z"/>
	<path d="M62.2,141.5c-0.6,0-1.2-0.2-1.8-0.5c-0.5-0.3-12.2-7.8-12.2-23.6c0-10.4,11.5-15,21.6-19.1c6.6-2.7,14.1-5.7,14.1-9.1
		c0-6.9-11.6-8.5-27.9-10c-15.5-1.4-31.5-2.8-31.5-14.8c0-3.2,1.3-5.9,3.7-7.9c7.9-6.7,26.5-3.9,28.6-3.6c1.8,0.3,3.1,2,2.8,3.8
		c-0.3,1.8-2,3.1-3.8,2.8c-6.8-1.1-19-1.5-23.2,2.1c-0.9,0.8-1.3,1.7-1.3,2.9c0,5.8,13.5,7,25.4,8.1c15.9,1.4,34,3.1,34,16.6
		c0,7.8-9.3,11.6-18.3,15.2c-8.6,3.5-17.4,7.1-17.4,12.9c0,12,8.8,17.7,9.1,18c1.5,1,2,3,1,4.6C64.4,141,63.3,141.5,62.2,141.5z"/>
</g>
</svg>
