<?xml version="1.0" encoding="utf-8"?>
<!-- Generator: Adobe Illustrator 19.1.0, SVG Export Plug-In . SVG Version: 6.00 Build 0)  -->
<svg version="1.1" id="Layer_1" xmlns="http://www.w3.org/2000/svg" xmlns:xlink="http://www.w3.org/1999/xlink" x="0px" y="0px"
	 viewBox="214.8 -164.9 379.1 751.9" style="enable-background:new 214.8 -164.9 379.1 751.9;" xml:space="preserve">
<style type="text/css">
	.st0{fill:#D2D3D5;}
	.st1{fill:none;stroke:#D2D3D5;stroke-miterlimit:10;}
</style>
<g id="Dots_1_">
	<path class="st0" d="M402,218.4c-4.5,0-8.1-3.6-8.1-8.1c0-4.5,3.6-8.1,8.1-8.1c4.5,0,8.1,3.6,8.1,8.1
		C410.1,214.8,406.5,218.4,402,218.4"/>
	<path class="st0" d="M258.9,263c-4.5,0-8.1-3.6-8.1-8.1c0-4.5,3.6-8.1,8.1-8.1c4.5,0,8.1,3.6,8.1,8.1
		C267,259.4,263.4,263,258.9,263"/>
	<path class="st0" d="M292.7,65.3c-4.5,0-8.1-3.6-8.1-8.1c0-4.5,3.6-8.1,8.1-8.1c4.5,0,8.1,3.6,8.1,8.1
		C300.8,61.7,297.2,65.3,292.7,65.3"/>
	<path class="st0" d="M559.1,247.3c-4.5,0-8.1-3.6-8.1-8.1c0-4.5,3.6-8.1,8.1-8.1c4.5,0,8.1,3.6,8.1,8.1
		C567.2,243.7,563.6,247.3,559.1,247.3"/>
	<path class="st0" d="M505.8,462.4c-4.5,0-8.1-3.6-8.1-8.1c0-4.5,3.6-8.1,8.1-8.1c4.5,0,8.1,3.6,8.1,8.1
		C513.9,458.8,510.3,462.4,505.8,462.4"/>
	<path class="st0" d="M462.8,554.4c-4.5,0-8.1-3.6-8.1-8.1c0-4.5,3.6-8.1,8.1-8.1s8.1,3.6,8.1,8.1
		C470.9,550.8,467.3,554.4,462.8,554.4"/>
	<path class="st0" d="M298.7,544.8c-4.5,0-8.1-3.6-8.1-8.1c0-4.5,3.6-8.1,8.1-8.1s8.1,3.6,8.1,8.1
		C306.7,541.2,303.1,544.8,298.7,544.8"/>
	<path class="st0" d="M415.8,86.7c-4.5,0-8.1-3.6-8.1-8.1c0-4.5,3.6-8.1,8.1-8.1c4.5,0,8.1,3.6,8.1,8.1
		C423.9,83.1,420.3,86.7,415.8,86.7"/>
	<path class="st0" d="M585.9,340.9c-4.5,0-8.1-3.6-8.1-8.1c0-4.5,3.6-8.1,8.1-8.1c4.5,0,8.1,3.6,8.1,8.1
		C593.9,337.3,590.3,340.9,585.9,340.9"/>
	<path class="st0" d="M481.3,65.3c-4.5,0-8.1-3.6-8.1-8.1c0-4.5,3.6-8.1,8.1-8.1c4.5,0,8.1,3.6,8.1,8.1
		C489.4,61.7,485.8,65.3,481.3,65.3"/>
	<path class="st0" d="M402-61.3c-4.5,0-8.1-3.6-8.1-8.1c0-4.5,3.6-8.1,8.1-8.1c4.5,0,8.1,3.6,8.1,8.1
		C410.1-64.9,406.5-61.3,402-61.3"/>
	<path class="st0" d="M505.8,279.5c-4.5,0-8.1-3.6-8.1-8.1c0-4.5,3.6-8.1,8.1-8.1c4.5,0,8.1,3.6,8.1,8.1
		C513.9,275.9,510.3,279.5,505.8,279.5"/>
	<path class="st0" d="M442.6,152.5c-2.9,0-5.3-2.4-5.3-5.3c0-2.9,2.4-5.3,5.3-5.3c2.9,0,5.3,2.4,5.3,5.3
		C447.8,150.1,445.5,152.5,442.6,152.5"/>
	<path class="st0" d="M481.3,160.4c-2.9,0-5.3-2.4-5.3-5.3c0-2.9,2.4-5.3,5.3-5.3c2.9,0,5.3,2.4,5.3,5.3
		C486.6,158,484.2,160.4,481.3,160.4"/>
	<path class="st0" d="M429.1,21c-2.9,0-5.3-2.4-5.3-5.3c0-2.9,2.4-5.3,5.3-5.3c2.9,0,5.3,2.4,5.3,5.3C434.4,18.7,432.1,21,429.1,21"
		/>
	<path class="st0" d="M372.3-14.9c-2.9,0-5.3-2.4-5.3-5.3c0-2.9,2.4-5.3,5.3-5.3c2.9,0,5.3,2.4,5.3,5.3
		C377.6-17.3,375.2-14.9,372.3-14.9"/>
	<path class="st0" d="M434.4,355.1c-2.9,0-5.3-2.4-5.3-5.3c0-2.9,2.4-5.3,5.3-5.3c2.9,0,5.3,2.4,5.3,5.3
		C439.7,352.8,437.3,355.1,434.4,355.1"/>
	<path class="st0" d="M413.2,434.1c-2.9,0-5.3-2.4-5.3-5.3c0-2.9,2.4-5.3,5.3-5.3c2.9,0,5.3,2.4,5.3,5.3
		C418.5,431.8,416.1,434.1,413.2,434.1"/>
	<path class="st0" d="M440.4,568c-2.9,0-5.3-2.4-5.3-5.3c0-2.9,2.4-5.3,5.3-5.3c2.9,0,5.3,2.4,5.3,5.3
		C445.7,565.6,443.3,568,440.4,568"/>
	<path class="st0" d="M543.9,575c-2.9,0-5.3-2.4-5.3-5.3c0-2.9,2.4-5.3,5.3-5.3c2.9,0,5.3,2.4,5.3,5.3
		C549.2,572.6,546.8,575,543.9,575"/>
	<path class="st0" d="M347.7,587c-2.9,0-5.3-2.4-5.3-5.3c0-2.9,2.4-5.3,5.3-5.3c2.9,0,5.3,2.4,5.3,5.3
		C352.9,584.6,350.6,587,347.7,587"/>
	<path class="st0" d="M229.7,560c-2.9,0-5.3-2.4-5.3-5.3c0-2.9,2.4-5.3,5.3-5.3c2.9,0,5.3,2.4,5.3,5.3
		C235,557.6,232.7,560,229.7,560"/>
	<path class="st0" d="M505.8,535c-2.9,0-5.3-2.4-5.3-5.3c0-2.9,2.4-5.3,5.3-5.3c2.9,0,5.3,2.4,5.3,5.3
		C511.1,532.6,508.7,535,505.8,535"/>
	<path class="st0" d="M486.6,382.9c-2.9,0-5.3-2.4-5.3-5.3c0-2.9,2.4-5.3,5.3-5.3c2.9,0,5.3,2.4,5.3,5.3
		C491.8,380.5,489.5,382.9,486.6,382.9"/>
	<path class="st0" d="M529.3,490.1c-2.9,0-5.3-2.4-5.3-5.3c0-2.9,2.4-5.3,5.3-5.3c2.9,0,5.3,2.4,5.3,5.3
		C534.6,487.8,532.2,490.1,529.3,490.1"/>
	<path class="st0" d="M376.3,351.1c-2.9,0-5.3-2.4-5.3-5.3c0-2.9,2.4-5.3,5.3-5.3c2.9,0,5.3,2.4,5.3,5.3
		C381.6,348.7,379.2,351.1,376.3,351.1"/>
	<path class="st0" d="M585.9,163c-2.9,0-5.3-2.4-5.3-5.3c0-2.9,2.4-5.3,5.3-5.3c2.9,0,5.3,2.4,5.3,5.3
		C591.1,160.7,588.8,163,585.9,163"/>
	<path class="st0" d="M545.2,62.5c-2.9,0-5.3-2.4-5.3-5.3c0-2.9,2.4-5.3,5.3-5.3c2.9,0,5.3,2.4,5.3,5.3
		C550.5,60.1,548.1,62.5,545.2,62.5"/>
	<path class="st0" d="M585.9,0.3c-2.9,0-5.3-2.4-5.3-5.3c0-2.9,2.4-5.3,5.3-5.3c2.9,0,5.3,2.4,5.3,5.3C591.1-2,588.8,0.3,585.9,0.3"
		/>
	<path class="st0" d="M347.7,218.3c-2.9,0-5.3-2.4-5.3-5.3c0-2.9,2.4-5.3,5.3-5.3c2.9,0,5.3,2.4,5.3,5.3
		C352.9,216,350.6,218.3,347.7,218.3"/>
	<path class="st0" d="M306.7,284.8c-2.9,0-5.3-2.4-5.3-5.3c0-2.9,2.4-5.3,5.3-5.3c2.9,0,5.3,2.4,5.3,5.3
		C312,282.4,309.6,284.8,306.7,284.8"/>
	<path class="st0" d="M319.1,408.8c-2.9,0-5.3-2.4-5.3-5.3c0-2.9,2.4-5.3,5.3-5.3c2.9,0,5.3,2.4,5.3,5.3
		C324.3,406.5,322,408.8,319.1,408.8"/>
	<path class="st0" d="M486.6-46c-2.9,0-5.3-2.4-5.3-5.3c0-2.9,2.4-5.3,5.3-5.3c2.9,0,5.3,2.4,5.3,5.3C491.8-48.3,489.5-46,486.6-46"
		/>
	<path class="st0" d="M505.8-22.9c-2.9,0-5.3-2.4-5.3-5.3c0-2.9,2.4-5.3,5.3-5.3c2.9,0,5.3,2.4,5.3,5.3
		C511.1-25.3,508.7-22.9,505.8-22.9"/>
	<path class="st0" d="M461,32c-2.9,0-5.3-2.4-5.3-5.3c0-2.9,2.4-5.3,5.3-5.3c2.9,0,5.3,2.4,5.3,5.3C466.3,29.7,464,32,461,32"/>
</g>
<g id="Lines_1_">
	<polyline class="st1" points="544.5,-118.6 585.9,-4 545.2,57.2 585.9,157.8 559.1,239.3 	"/>
	<polyline class="st1" points="585.9,157.8 481.3,57.2 505.8,-28.2 505.8,-159.6 	"/>
	<line class="st1" x1="559.1" y1="239.3" x2="486.6" y2="379.4"/>
	<polyline class="st1" points="297.2,536.7 376.3,345.8 319.1,405.8 	"/>
	<polyline class="st1" points="462.8,546.7 505.8,453.9 486.6,379.4 	"/>
	<path class="st1" d="M462.8,546.7"/>
	<path class="st1" d="M543.9,569.7"/>
	<polyline class="st1" points="463.1,-142.6 486.6,-51.3 461,26.7 481.3,155.1 559.1,239.3 585.9,332.4 529.3,484.9 543.9,569.7 	
		"/>
	<path class="st1" d="M463.1-142.6"/>
	<path class="st1" d="M440.6-126.6"/>
	<polyline class="st1" points="440.4,562.7 413.2,428.9 486.6,379.4 505.8,271.4 442.6,147.2 429.1,15.8 402,-69.7 440.6,-126.6 	
		"/>
	<path class="st1" d="M440.4,562.7"/>
	<path class="st1" d="M347.5,581.7"/>
	<line class="st1" x1="413.2" y1="428.9" x2="347.5" y2="581.7"/>
	<line class="st1" x1="319.1" y1="405.8" x2="223.3" y2="332.8"/>
	<polyline class="st1" points="292.7,52 347.7,213.1 402,210.3 376.3,345.8 434.5,349.9 413.2,428.9 	"/>
	<polyline class="st1" points="372.3,-20.2 416.3,78.6 402,210.3 434.5,349.9 	"/>
	<line class="st1" x1="223.3" y1="-4.9" x2="294.5" y2="57.2"/>
	<line class="st1" x1="348.4" y1="-103.6" x2="372.3" y2="-20.2"/>
	<line class="st1" x1="229.7" y1="-134.6" x2="292.7" y2="52"/>
	<line class="st1" x1="229.7" y1="554.7" x2="319.1" y2="405.8"/>
	<line class="st1" x1="319.1" y1="405.8" x2="347.7" y2="213.1"/>
	<line class="st1" x1="347.7" y1="213.1" x2="372.3" y2="-20.2"/>
	<line class="st1" x1="299.2" y1="-149.6" x2="372.3" y2="-20.2"/>
	<line class="st1" x1="222.9" y1="157.8" x2="258.9" y2="255"/>
	<line class="st1" x1="258.9" y1="255" x2="306.7" y2="279.5"/>
	<line class="st1" x1="306.7" y1="279.5" x2="319.1" y2="405.8"/>
	<line class="st1" x1="505.8" y1="529.4" x2="505.8" y2="453.9"/>
</g>
<path class="st0" d="M222.9,340.9c-4.5,0-8.1-3.6-8.1-8.1c0-4.5,3.6-8.1,8.1-8.1c4.5,0,8.1,3.6,8.1,8.1
	C230.9,337.3,227.3,340.9,222.9,340.9"/>
<path class="st0" d="M301.4-141.6c-4.5,0-8.1-3.6-8.1-8.1c0-4.5,3.6-8.1,8.1-8.1c4.5,0,8.1,3.6,8.1,8.1
	C309.5-145.2,305.9-141.6,301.4-141.6"/>
<path class="st0" d="M462.8-134.6c-4.5,0-8.1-3.6-8.1-8.1c0-4.5,3.6-8.1,8.1-8.1c4.5,0,8.1,3.6,8.1,8.1
	C470.9-138.2,467.3-134.6,462.8-134.6"/>
<path class="st0" d="M223.3,163c-2.9,0-5.3-2.4-5.3-5.3c0-2.9,2.4-5.3,5.3-5.3c2.9,0,5.3,2.4,5.3,5.3
	C228.6,160.7,226.2,163,223.3,163"/>
<path class="st0" d="M223.3,0.3c-2.9,0-5.3-2.4-5.3-5.3c0-2.9,2.4-5.3,5.3-5.3c2.9,0,5.3,2.4,5.3,5.3C228.6-2,226.2,0.3,223.3,0.3"
	/>
<path class="st0" d="M229.7-129.4c-2.9,0-5.3-2.4-5.3-5.3c0-2.9,2.4-5.3,5.3-5.3c2.9,0,5.3,2.4,5.3,5.3
	C235-131.7,232.7-129.4,229.7-129.4"/>
<path class="st0" d="M348.4-98.4c-2.9,0-5.3-2.4-5.3-5.3c0-2.9,2.4-5.3,5.3-5.3c2.9,0,5.3,2.4,5.3,5.3
	C353.7-100.7,351.3-98.4,348.4-98.4"/>
<path class="st0" d="M440.6-121.4c-2.9,0-5.3-2.4-5.3-5.3c0-2.9,2.4-5.3,5.3-5.3c2.9,0,5.3,2.4,5.3,5.3
	C445.8-123.7,443.5-121.4,440.6-121.4"/>
<path class="st0" d="M505.8-154.4c-2.9,0-5.3-2.4-5.3-5.3c0-2.9,2.4-5.3,5.3-5.3c2.9,0,5.3,2.4,5.3,5.3
	C511.1-156.7,508.7-154.4,505.8-154.4"/>
<path class="st0" d="M544.5-113.4c-2.9,0-5.3-2.4-5.3-5.3c0-2.9,2.4-5.3,5.3-5.3c2.9,0,5.3,2.4,5.3,5.3
	C549.8-115.7,547.4-113.4,544.5-113.4"/>
</svg>
