<?xml version="1.0" encoding="utf-8"?>
<!-- Generator: Adobe Illustrator 19.1.0, SVG Export Plug-In . SVG Version: 6.00 Build 0)  -->
<svg version="1.1" id="Layer_1" xmlns="http://www.w3.org/2000/svg" xmlns:xlink="http://www.w3.org/1999/xlink" x="0px" y="0px"
	 viewBox="0 0 101.1 84.4" style="enable-background:new 0 0 101.1 84.4;" xml:space="preserve">
<style type="text/css">
	.st0{fill:#F39F1E;}
	.st1{fill:#B42E33;}
</style>
<g>
	<path class="st0" d="M101.1,31.8C90,27.5,74.3,24,63,29.3c-13.2,6.2-18.2,18.8-23,31.6c0,0-5.4,14.4-12.9,18.7
		c0.4-0.2,3.9,1.4,4.4,1.5c8.1,2.5,17.2,4,25.7,2.9c17.1-2.3,22.2-18.5,28.1-32.1c1.8-4.2,4-8.5,6.7-12.2
		C93.2,38.4,99.2,31.1,101.1,31.8z"/>
	<path class="st1" d="M10.6,0C9.9,4.1,6.1,6.6,4.1,10c-3.9,6.7-5.1,16-3.3,23.5c2,8.3,8.7,14,16,17.7c0,0,4.9,2.6,5.8,9.2
		c-0.1-0.5,0.9-1.8,1.2-2.2c1-2.1,1.9-4.4,2.8-6.6c2.3-6.3,6.1-14.3,4.6-21.1c-1.4-6.3-7.6-10-12-14C14.3,12.1,9.5,7,10.6,0z"/>
</g>
</svg>
